# xmcd CD database file
#
# Track frame offsets:
#	150
#	20165
#	43242
#	64547
#	86962
#	106480
#	133617
#	153090
#	174205
#	198922
#	219527
#
# Disc length: 3342 seconds
#
# Revision: 4
# Processed by: cddbd v1.5.1PL0 Copyright (c) Steve Scherf et al.
# Submitted via: CDex 1.51
#
DISCID=950d0c0b
DTITLE=ダイアン・シューア - ファイナリー〜フレンズ・フォー・シューア
DYEAR=2000
DGENRE=Jazz
TTITLE0=イージー・リヴィング（スタン・ゲッツ）
TTITLE1=アイドゥ・フライ（リッカルド・コッチャンテ）
TTITLE2=フォー・ザ・ファースト・タイム
TTITLE3=君に想いを（アラン・バーグマン，デイヴ・グルーシン）
TTITLE4=ラヴ・ライク・アワーズ（デイヴ・グルーシン）
TTITLE5=哀愁のマンハッタン（スティーヴン・ビショップ）
TTITLE6=ハート・ネヴァー・ラーンズ
TTITLE7=ネヴァー・テイク・ザット・チャンス・アゲイン
TTITLE8=イット・ハド・トゥ・ビー・ユー（ライヴ）（レイ・チャールズ）
TTITLE9=心の愛（ライヴ）（ハービー・ハンコック）
TTITLE10=ファイナリー（スティーヴィー・ワンダー）
EXTD=whit - Stan Getz (digitally reintroduced), Richard Cocciante, Dave Grusin,\nAlan Bergman,Stephan Bishop, Ray Charles, Herbie Hancock, Stevie Wonder YEAR: 2000
EXTT0=
EXTT1=
EXTT2=
EXTT3=
EXTT4=
EXTT5=
EXTT6=
EXTT7=
EXTT8=
EXTT9=
EXTT10=
PLAYORDER=
